<svg width="288" height="72" viewBox="0 0 288 72" fill="none" xmlns="http://www.w3.org/2000/svg">
<path d="M37.7445 30.8587C37.7445 39.4923 34.1048 47.2436 28.3281 52.5375C26.3447 54.3634 24.1068 55.8941 21.6758 57.0718C19.2481 55.8941 17.0068 54.3634 15.0235 52.5375C17.425 51.9337 19.6697 50.9019 21.6758 49.5344C27.5275 45.5467 31.3929 38.6744 31.3929 30.8621C31.3929 23.0497 27.5275 16.1709 21.6758 12.1833C19.6697 10.8122 17.4283 9.78396 15.0235 9.17988C13.3833 8.75908 11.6679 8.53848 9.90354 8.53848C8.52799 8.53848 7.18182 8.67424 5.88143 8.93553C5.74745 8.95929 5.6135 8.98644 5.47629 9.01699C5.33903 9.03734 5.19529 9.04754 5.05151 9.04754C3.2904 9.04754 1.86911 7.56449 1.86911 5.74207C1.86911 5.34502 1.93774 4.96831 2.05536 4.61875C2.08802 4.53053 2.12396 4.44568 2.1599 4.35746C2.271 4.10632 2.41474 3.86877 2.57814 3.65496C2.63367 3.5837 2.68921 3.51581 2.75457 3.44794C2.87873 3.31898 3.00942 3.19682 3.14993 3.08822C3.43092 2.86762 3.75111 2.69455 4.1007 2.58593C4.18569 2.5588 4.27389 2.53164 4.3621 2.51128C4.41438 2.50111 4.46994 2.49091 4.52548 2.48074C4.5418 2.47733 4.55489 2.47396 4.56794 2.47396C6.29311 2.121 8.08035 1.93774 9.90354 1.93774C14.1119 1.93774 18.098 2.90834 21.6758 4.64253C24.1036 5.82012 26.3447 7.35069 28.3281 9.17649C34.1048 14.474 37.7445 22.2252 37.7445 30.8587Z" fill="url(#paint0_linear)"/>
<path d="M21.6757 59.2099L20.8849 58.8262C18.3103 57.5808 15.9218 55.9517 13.785 53.9868L11.1057 51.523L14.5822 50.6475C16.7419 50.1045 18.7841 49.1815 20.6498 47.9088C26.2075 44.1214 29.5239 37.7481 29.5239 30.8556C29.5239 23.963 26.2041 17.5894 20.6498 13.8055C18.7807 12.5295 16.7419 11.6098 14.5822 11.0634C11.8703 10.3711 8.96888 10.2931 6.23411 10.8394L6.1851 10.8496C6.0838 10.8666 5.98253 10.887 5.88123 10.9107L5.7244 10.9379C5.4957 10.9684 5.26697 10.9854 5.04808 10.9854C2.26755 10.9888 0 8.63355 0 5.74212C0 5.13806 0.0980207 4.54075 0.294062 3.97063L0.313666 3.91632C0.359409 3.79414 0.40842 3.67536 0.457431 3.55659C0.637133 3.15273 0.859315 2.78283 1.1207 2.44346L1.14357 2.41291C1.23506 2.29754 1.32981 2.18554 1.43437 2.07694C1.60754 1.89029 1.81992 1.69685 2.04209 1.52716C2.48319 1.18101 2.99944 0.906117 3.56142 0.729643C3.70518 0.685527 3.84241 0.644803 3.9829 0.614258C4.02212 0.604078 4.08094 0.593897 4.13974 0.583714C4.17568 0.573533 4.21816 0.566748 4.2639 0.559959C6.10016 0.190047 7.99849 0 9.90335 0C14.2881 0 18.5162 0.970596 22.4664 2.88802C25.041 4.1335 27.4294 5.76249 29.5662 7.72743C35.9507 13.5782 39.6133 22.0082 39.6133 30.8587C39.6133 39.7095 35.9507 48.1394 29.5631 53.9937C27.4294 55.9551 25.0376 57.5842 22.4631 58.8297L21.6757 59.2099ZM18.9376 53.2368C19.8164 53.8512 20.7314 54.4109 21.6757 54.9099C23.623 53.8815 25.4428 52.5955 27.0897 51.0818C32.6735 45.9641 35.8754 38.5932 35.8754 30.8556C35.8754 23.118 32.6735 15.7501 27.0897 10.6358C25.2206 8.91862 23.133 7.49328 20.8849 6.4073C17.4313 4.73419 13.7392 3.88238 9.90335 3.88238C8.22064 3.88238 6.54777 4.04868 4.92719 4.38125L4.73767 4.41859C4.70173 4.42877 4.67559 4.43556 4.64619 4.44574C4.50241 4.48985 4.38152 4.55433 4.27695 4.63918C4.20183 4.69687 4.14626 4.74777 4.094 4.80207C4.06133 4.836 4.04173 4.85978 4.02537 4.88014C3.95676 4.97175 3.89795 5.07017 3.85221 5.17538C3.83587 5.20932 3.81954 5.25345 3.8032 5.29755C3.75745 5.44347 3.73132 5.59281 3.73132 5.74553C3.73132 6.49893 4.32273 7.11319 5.04808 7.11319C5.084 7.11319 5.1232 7.10978 5.16241 7.1064C5.28986 7.07925 5.41728 7.05209 5.5447 7.03173C8.799 6.38354 12.2461 6.48194 15.4611 7.30322C18.0325 7.95142 20.4667 9.05097 22.6917 10.5714C29.3017 15.0748 33.2487 22.663 33.2487 30.8655C33.2487 39.0681 29.3017 46.6565 22.6884 51.1632C21.5025 51.971 20.2445 52.6668 18.9376 53.2368Z" fill="url(#paint1_linear)"/>
<path d="M41.2183 55.9758C41.2183 56.3525 41.1596 56.7123 41.0451 57.0483C40.7152 58.0662 39.9212 58.8572 38.9311 59.1591C38.9085 59.1625 38.8887 59.1659 38.8693 59.1692C38.8592 59.1726 38.8429 59.1761 38.8331 59.1761C38.7254 59.1997 38.6143 59.2235 38.5032 59.2405C38.4935 59.2439 38.4772 59.2474 38.4671 59.2474C38.4444 59.2542 38.4182 59.2573 38.3952 59.2642C36.706 59.5967 34.9678 59.7733 33.1872 59.7733C28.9788 59.7733 24.9926 58.8027 21.4149 57.0685C18.9872 55.891 16.7459 54.3605 14.7626 52.5346C8.9859 47.2405 5.34604 39.4892 5.34604 30.8557C5.34604 22.2222 8.9859 14.4709 14.7626 9.1768C16.7459 7.35098 18.984 5.82043 21.4149 4.64282C23.8427 5.82043 26.0841 7.35098 28.0672 9.1768C25.6656 9.78086 23.4211 10.8125 21.4149 12.1802C15.5598 16.1712 11.6978 23.0434 11.6978 30.859C11.6978 38.6747 15.5631 45.547 21.4149 49.5311C23.4211 50.9022 25.6625 51.9305 28.0672 52.5346C29.7075 52.9554 31.4227 53.1761 33.1872 53.1761C34.5857 53.1761 35.9513 53.0369 37.2745 52.7687C37.3529 52.7586 37.4347 52.7382 37.5131 52.718C37.5295 52.7146 37.5426 52.7111 37.5557 52.7111C37.7159 52.6839 37.8759 52.6738 38.0424 52.6738C39.7938 52.6703 41.2183 54.1499 41.2183 55.9758Z" fill="url(#paint2_linear)"/>
<path d="M33.1836 61.7147C28.7988 61.7147 24.5708 60.7441 20.6206 58.8266C18.0458 57.5812 15.6574 55.9521 13.5206 53.9871C7.13943 48.1365 3.47672 39.7067 3.47672 30.8591C3.47672 22.0119 7.13943 13.5785 13.5271 7.7278C15.6607 5.76625 18.0491 4.13727 20.6271 2.89179L21.4178 2.5083L22.2085 2.89179C24.783 4.13727 27.1717 5.76625 29.3085 7.73118L31.9876 10.195L28.5111 11.0706C26.3515 11.6136 24.3126 12.5367 22.447 13.8093C16.8827 17.5899 13.5663 23.9665 13.5663 30.8591C13.5663 37.7519 16.8827 44.1251 22.4372 47.9092C24.3028 49.185 26.345 50.1049 28.5047 50.6511C31.2361 51.3503 34.1636 51.4216 36.9149 50.865L37.0063 50.8482C37.0261 50.8448 37.0552 50.8379 37.0816 50.8311C37.1372 50.8175 37.2188 50.7971 37.3168 50.7868C37.552 50.7496 37.7873 50.7327 38.0388 50.7327C40.8225 50.7327 43.087 53.0845 43.087 55.976C43.087 56.5665 42.9953 57.14 42.8123 57.6863C42.2961 59.2847 41.0415 60.537 39.4603 61.0223L39.2542 61.0732C39.2217 61.0801 39.1855 61.0868 39.1528 61.0936C39.0681 61.1106 38.9831 61.1274 38.8982 61.1445C38.8754 61.1512 38.8556 61.1547 38.8326 61.1581C38.7934 61.1684 38.7544 61.1751 38.7218 61.1819C36.9051 61.5347 35.0426 61.7147 33.1836 61.7147ZM21.4112 6.80471C19.4639 7.83301 17.644 9.1192 15.9972 10.6328C10.4133 15.7505 7.21131 23.1215 7.21131 30.8559C7.21131 38.59 10.4133 45.9611 15.9972 51.0788C17.8662 52.796 19.954 54.218 22.2019 55.3074C25.6523 56.9805 29.3477 57.8324 33.1836 57.8324C34.7975 57.8324 36.4117 57.6762 37.9867 57.3707L38.1661 57.3097H38.2905C38.3263 57.3028 38.359 57.2961 38.395 57.2893L38.4863 57.2689C38.8524 57.1263 39.1528 56.8141 39.2772 56.4273C39.3294 56.2712 39.3522 56.1285 39.3522 55.976C39.3522 55.226 38.7643 54.615 38.0422 54.615C37.9833 54.615 37.9311 54.6184 37.882 54.6253C37.7807 54.6491 37.6893 54.6693 37.5976 54.6829C34.3272 55.3413 30.854 55.2498 27.6224 54.4216C25.051 53.7735 22.6169 52.6739 20.3918 51.1535C13.782 46.6499 9.83499 39.0618 9.83499 30.8591C9.83499 22.6533 13.782 15.065 20.3952 10.5615C21.591 9.74365 22.849 9.04794 24.1559 8.47782C23.2702 7.86356 22.3588 7.3036 21.4112 6.80471Z" fill="url(#paint3_linear)"/>
<path d="M65.9319 45.7138C63.8605 45.7138 62.0038 45.4805 60.3691 45.0107C58.7341 44.5409 57.3694 43.9779 56.2784 43.3182C55.0441 42.5873 54.4252 41.6165 54.4252 40.4C54.4252 39.6005 54.7345 38.9159 55.3534 38.3435C55.9722 37.771 56.7181 37.4849 57.591 37.4849C58.2457 37.4849 58.9914 37.712 59.8285 38.163C60.7729 38.6825 61.7728 39.1182 62.828 39.4666C63.8832 39.8151 65.0461 39.9863 66.3194 39.9863C67.7005 39.9863 68.7264 39.7685 69.4005 39.3359C70.0713 38.9036 70.41 38.3374 70.41 37.6434C70.41 37.0523 70.1658 36.5921 69.674 36.2622C69.1822 35.9324 68.1563 35.6804 66.5929 35.5061L63.7041 35.1949C60.8316 34.8839 58.6787 34.0655 57.2425 32.7466C55.806 31.4274 55.0896 29.6727 55.0896 27.4858C55.0896 24.9843 56.0341 23.0055 57.9263 21.5465C59.8154 20.0873 62.5088 19.3594 65.997 19.3594C67.4886 19.3594 68.9152 19.4993 70.2766 19.7763C71.6413 20.0531 72.8853 20.4701 74.0121 21.0269C75.5039 21.7549 76.2496 22.7132 76.2496 23.8923C76.2496 24.6918 75.9759 25.37 75.4321 25.9239C74.8882 26.4807 74.1586 26.7577 73.25 26.7577C72.9601 26.7577 72.6508 26.714 72.3217 26.6269C71.9961 26.5398 71.576 26.3749 71.068 26.1323C69.4329 25.4043 67.6514 25.0373 65.7235 25.0373C64.5607 25.0373 63.7138 25.2209 63.1863 25.5846C62.6586 25.9487 62.3949 26.4279 62.3949 27.019C62.3949 27.6101 62.6293 28.0707 63.1049 28.4002C63.5771 28.73 64.5573 28.9666 66.0491 29.1034L68.9411 29.4147C72.0678 29.763 74.3117 30.5969 75.6764 31.9158C77.0412 33.235 77.7217 34.9554 77.7217 37.0741C77.7217 39.6781 76.6925 41.7719 74.6407 43.3525C72.5758 44.9237 69.6773 45.7138 65.9319 45.7138Z" fill="white"/>
<path d="M108.851 45.4526C106.669 45.4526 105.233 44.3234 104.542 42.0676L100.781 29.981H100.673L96.8559 42.0676C96.094 44.3263 94.6934 45.4526 92.658 45.4526C90.5866 45.4526 89.1503 44.3234 88.349 42.0676L82.1838 24.6141C82.0013 24.023 81.9101 23.519 81.9101 23.1021C81.9101 22.0943 82.2652 21.2605 82.9752 20.601C83.6851 19.9413 84.5645 19.6115 85.6197 19.6115C87.437 19.6115 88.6553 20.6351 89.274 22.6854L93.0911 35.4474H93.1985L96.9602 22.7351C97.615 20.6507 98.8687 19.6084 100.722 19.6084C102.539 19.6084 103.777 20.6507 104.432 22.7351L108.412 35.4474H108.519L112.173 22.6854C112.792 20.6351 114.007 19.6115 115.827 19.6115C116.883 19.6115 117.752 19.9413 118.446 20.601C119.137 21.2605 119.482 22.0943 119.482 23.1021C119.482 23.519 119.39 24.023 119.208 24.6141L113.049 42.0676C112.251 44.3234 110.851 45.4526 108.851 45.4526Z" fill="white"/>
<path d="M128.812 17.3749C127.613 17.3749 126.594 16.9767 125.757 16.1771C124.92 15.3775 124.503 14.4069 124.503 13.2589C124.503 12.114 124.92 11.1402 125.757 10.3406C126.594 9.54415 127.61 9.14282 128.812 9.14282C130.014 9.14282 131.03 9.54415 131.867 10.3406C132.704 11.1402 133.121 12.1109 133.121 13.2589C133.121 14.4038 132.701 15.3775 131.867 16.1771C131.027 16.9767 130.011 17.3749 128.812 17.3749ZM128.812 45.453C127.685 45.453 126.767 45.1138 126.056 44.4356C125.346 43.7574 124.991 42.8117 124.991 41.5952V23.4697C124.991 22.2531 125.346 21.3073 126.056 20.6291C126.767 19.951 127.682 19.615 128.812 19.615C129.903 19.615 130.812 19.9541 131.538 20.6291C132.264 21.3073 132.629 22.2531 132.629 23.4697V41.5981C132.629 42.8146 132.264 43.7605 131.538 44.4387C130.808 45.1138 129.903 45.453 128.812 45.453Z" fill="white"/>
<path d="M148.497 45.4528C145.371 45.4528 143.179 44.7683 141.925 43.3964C140.671 42.0243 140.043 39.8963 140.043 37.0153V25.6597C140.043 25.4512 139.916 25.3486 139.662 25.3486H139.443C138.463 25.3486 137.707 25.0966 137.18 24.5926C136.652 24.0886 136.389 23.4385 136.389 22.6388C136.389 21.8392 136.652 21.189 137.18 20.685C137.707 20.181 138.463 19.929 139.443 19.929H139.662C139.916 19.929 140.043 19.8263 140.043 19.6179V15.8627C140.043 14.6463 140.398 13.7005 141.108 13.0223C141.818 12.3441 142.733 12.0081 143.863 12.0081C144.954 12.0081 145.853 12.3472 146.563 13.0223C147.273 13.6974 147.628 14.6463 147.628 15.8627V19.6148C147.628 19.8232 147.735 19.9259 147.954 19.9259H150.025C151.005 19.9259 151.761 20.1779 152.289 20.6819C152.816 21.1859 153.08 21.8362 153.08 22.6357C153.08 23.4352 152.816 24.0855 152.289 24.5895C151.761 25.0935 151.009 25.3455 150.025 25.3455H147.954C147.735 25.3455 147.628 25.4483 147.628 25.6564V36.8039C147.628 37.5692 147.781 38.1231 148.09 38.4714C148.4 38.8199 148.918 39.0284 149.644 39.0968C150.842 39.2367 151.706 39.61 152.233 40.2167C152.761 40.8265 153.025 41.5297 153.025 42.326C153.025 43.2284 152.689 43.975 152.015 44.5662C151.341 45.1573 150.279 45.4528 148.823 45.4528H148.497Z" fill="white"/>
<path d="M168.348 45.7139C165.547 45.7139 163.176 45.1072 161.232 43.8908C159.287 42.6743 157.913 40.8886 157.115 38.524C156.822 37.7617 156.607 36.8999 156.461 35.9447C156.314 34.9899 156.242 33.8543 156.242 32.5319C156.242 31.213 156.314 30.0742 156.461 29.119C156.607 28.1639 156.822 27.3052 157.115 26.54C157.913 24.1786 159.287 22.3897 161.232 21.1732C163.176 19.9568 165.547 19.3501 168.348 19.3501C170.201 19.3501 171.839 19.6114 173.257 20.131C174.673 20.6506 175.799 21.3133 176.636 22.1098C177.181 22.6292 177.572 23.1176 177.81 23.5688C178.044 24.02 178.165 24.5053 178.165 25.028C178.165 25.9302 177.846 26.677 177.21 27.268C176.575 27.8591 175.784 28.1547 174.838 28.1547C174.255 28.1547 173.729 28.0239 173.257 27.7626C172.785 27.5014 172.277 27.1278 171.728 26.6427C170.891 25.8774 169.801 25.4977 168.456 25.4977C166.384 25.4977 165.055 26.4186 164.476 28.2604C164.293 28.7458 164.166 29.3212 164.095 29.9809C164.023 30.6404 163.987 31.4929 163.987 32.5352C163.987 33.5773 164.023 34.4298 164.095 35.0893C164.166 35.749 164.293 36.3212 164.476 36.8098C165.055 38.6516 166.384 39.5725 168.456 39.5725C169.801 39.5725 170.891 39.1899 171.728 38.4275C172.273 37.9422 172.785 37.569 173.257 37.3076C173.729 37.0463 174.255 36.9155 174.838 36.9155C175.784 36.9155 176.575 37.2111 177.21 37.8022C177.846 38.3934 178.165 39.14 178.165 40.0422C178.165 40.562 178.047 41.0504 177.81 41.5014C177.572 41.9526 177.181 42.4378 176.636 42.9606C175.799 43.7602 174.673 44.4195 173.257 44.9392C171.839 45.4588 170.204 45.7139 168.348 45.7139Z" fill="white"/>
<path d="M203.253 45.4528C202.162 45.4528 201.254 45.1136 200.528 44.4354C199.8 43.7572 199.436 42.8115 199.436 41.595V30.1367C199.436 28.749 199.092 27.6352 198.401 26.8014C197.709 25.9678 196.675 25.5508 195.293 25.5508C193.913 25.5508 192.883 25.9678 192.212 26.8014C191.539 27.6352 191.203 28.7458 191.203 30.1367V41.5979C191.203 42.8144 190.838 43.7602 190.112 44.4383C189.385 45.1168 188.476 45.4558 187.386 45.4558C186.259 45.4558 185.341 45.1168 184.63 44.4383C183.921 43.7602 183.565 42.8144 183.565 41.5979V13.2587C183.565 12.0422 183.921 11.0964 184.63 10.4182C185.341 9.73998 186.256 9.40088 187.386 9.40088C188.476 9.40088 189.385 9.73998 190.112 10.4182C190.838 11.0964 191.203 12.0422 191.203 13.2587V22.0631H191.258C191.876 21.3694 192.74 20.7442 193.848 20.1872C194.956 19.6302 196.365 19.3534 198.074 19.3534C199.528 19.3534 200.821 19.5867 201.948 20.0566C203.074 20.5263 204.018 21.1765 204.783 22.0103C205.547 22.8442 206.119 23.8333 206.501 24.9783C206.881 26.1232 207.074 27.374 207.074 28.7303V41.5979C207.074 42.8144 206.719 43.7602 206.012 44.4383C205.305 45.1168 204.379 45.4528 203.253 45.4528Z" fill="white"/>
<path d="M225.068 45.7141C221.976 45.7141 219.434 45.0887 217.433 43.8381C215.434 42.5874 214.052 40.8172 213.287 38.5244C212.994 37.7248 212.779 36.8567 212.633 35.9202C212.486 34.9839 212.414 33.8545 212.414 32.5353C212.414 31.2162 212.476 30.0776 212.607 29.1224C212.733 28.1673 212.943 27.2898 213.236 26.4903C214.033 24.1976 215.424 22.4367 217.408 21.2015C219.388 19.9695 221.797 19.3535 224.635 19.3535C227.58 19.3535 230.023 19.9695 231.97 21.2015C233.912 22.4334 235.269 24.1787 236.03 26.4375C236.322 27.3397 236.538 28.2512 236.687 29.1721C236.83 30.093 236.905 31.1447 236.905 32.3236C236.905 33.0176 236.687 33.5932 236.249 34.0441C235.812 34.4953 235.194 34.7226 234.396 34.7226H220.381C220.163 34.7226 220.056 34.8251 220.056 35.0336C220.056 35.4846 220.146 35.9701 220.329 36.4926C220.69 37.5692 221.344 38.3843 222.293 38.9413C223.237 39.4981 224.4 39.7749 225.783 39.7749C226.693 39.7749 227.566 39.6536 228.403 39.411C229.239 39.1683 230.022 38.8571 230.748 38.4745C231.656 37.9551 232.53 37.6935 233.367 37.6935C234.164 37.6935 234.829 37.9456 235.357 38.4496C235.884 38.9536 236.148 39.6039 236.148 40.4034C236.148 41.4798 235.64 42.3479 234.619 43.0074C233.346 43.8412 231.956 44.5009 230.448 44.986C228.931 45.4713 227.138 45.7141 225.068 45.7141ZM229.049 29.8753C229.267 29.8753 229.372 29.7726 229.372 29.5641C229.372 29.1472 229.349 28.7989 229.291 28.522C229.236 28.245 229.175 27.9683 229.101 27.6882C228.81 26.7858 228.273 26.0984 227.491 25.6317C226.709 25.1619 225.772 24.9287 224.683 24.9287C223.595 24.9287 222.665 25.1619 221.901 25.6317C221.14 26.1015 220.613 26.7858 220.318 27.6882C220.245 27.9651 220.182 28.245 220.127 28.522C220.071 28.7989 220.046 29.1472 220.046 29.5641C220.046 29.7726 220.153 29.8753 220.371 29.8753H229.049Z" fill="white"/>
<path d="M246.281 45.4527C245.153 45.4527 244.236 45.1134 243.525 44.4352C242.816 43.7571 242.46 42.8113 242.46 41.5948V23.4694C242.46 22.2529 242.816 21.3071 243.525 20.6288C244.236 19.9506 245.149 19.6146 246.281 19.6146C247.187 19.6146 247.98 19.8572 248.65 20.3427C249.321 20.828 249.768 21.5248 249.986 22.4271V22.4799H250.04C250.659 21.6462 251.543 20.9182 252.687 20.2928C253.832 19.6674 255.168 19.3564 256.697 19.3564C257.314 19.3564 257.842 19.4 258.28 19.4871C258.714 19.5742 259.116 19.7048 259.476 19.8791C260.168 20.1901 260.676 20.607 261.005 21.1297C261.334 21.6524 261.497 22.2248 261.497 22.8502C261.497 23.9267 261.15 24.8134 260.461 25.5071C259.769 26.2007 258.863 26.5494 257.734 26.5494C257.262 26.5494 256.714 26.4623 256.1 26.2878C255.482 26.1136 254.825 26.0266 254.135 26.0266C252.719 26.0266 251.69 26.4872 251.054 27.4081C250.419 28.3288 250.1 29.6387 250.1 31.3405V41.6043C250.1 42.8207 249.735 43.7663 249.009 44.4447C248.278 45.1134 247.372 45.4527 246.281 45.4527Z" fill="white"/>
<path d="M276.165 45.7141C273.073 45.7141 270.529 45.0887 268.53 43.8381C266.531 42.5874 265.151 40.8172 264.384 38.5244C264.091 37.7248 263.876 36.8567 263.728 35.9202C263.583 34.9839 263.512 33.8545 263.512 32.5353C263.512 31.2162 263.573 30.0776 263.704 29.1224C263.83 28.1673 264.04 27.2898 264.331 26.4903C265.13 24.1976 266.519 22.4367 268.505 21.2015C270.485 19.9695 272.894 19.3535 275.732 19.3535C278.675 19.3535 281.122 19.9695 283.065 21.2015C285.011 22.4334 286.366 24.1787 287.127 26.4375C287.417 27.3397 287.635 28.2512 287.782 29.1721C287.925 30.093 288 31.1447 288 32.3236C288 33.0176 287.782 33.5932 287.344 34.0441C286.909 34.4953 286.291 34.7226 285.492 34.7226H271.477C271.26 34.7226 271.153 34.8251 271.153 35.0336C271.153 35.4846 271.243 35.9701 271.426 36.4926C271.789 37.5692 272.441 38.3843 273.389 38.9413C274.334 39.4981 275.495 39.7749 276.882 39.7749C277.789 39.7749 278.661 39.6536 279.498 39.411C280.338 39.1683 281.117 38.8571 281.845 38.4745C282.753 37.9551 283.625 37.6935 284.462 37.6935C285.26 37.6935 285.924 37.9456 286.453 38.4496C286.979 38.9536 287.245 39.6039 287.245 40.4034C287.245 41.4798 286.737 42.3479 285.716 43.0074C284.443 43.8412 283.051 44.5009 281.543 44.986C280.026 45.4713 278.24 45.7141 276.165 45.7141ZM280.147 29.8753C280.367 29.8753 280.473 29.7726 280.473 29.5641C280.473 29.1472 280.446 28.7989 280.391 28.522C280.338 28.245 280.273 27.9683 280.198 27.6882C279.909 26.7858 279.372 26.0984 278.591 25.6317C277.809 25.1619 276.87 24.9287 275.783 24.9287C274.696 24.9287 273.764 25.1619 273.002 25.6317C272.24 26.1015 271.714 26.7858 271.419 27.6882C271.344 27.9651 271.282 28.245 271.228 28.522C271.172 28.7989 271.146 29.1472 271.146 29.5641C271.146 29.7726 271.253 29.8753 271.47 29.8753H280.147Z" fill="white"/>
<g opacity="0.6">
<path opacity="0.3" d="M54.2346 68.5713V56.3838H58.1954C59.5102 56.3838 60.4975 56.6572 61.1577 57.2041C61.8234 57.7511 62.1562 58.5602 62.1562 59.6317C62.1562 60.2008 61.9953 60.7058 61.6736 61.1466C61.3518 61.582 60.9137 61.9196 60.3588 62.1596C61.0136 62.3437 61.5294 62.6953 61.9065 63.2142C62.2894 63.7276 62.4808 64.3415 62.4808 65.0557C62.4808 66.1494 62.1286 67.0088 61.4239 67.6338C60.7194 68.2588 59.7237 68.5713 58.4367 68.5713H54.2346ZM55.8323 62.871V67.2572H58.47C59.2133 67.2572 59.7987 67.0646 60.2257 66.6796C60.6584 66.2889 60.8748 65.7532 60.8748 65.0725C60.8748 63.6049 60.0816 62.871 58.495 62.871H55.8323ZM55.8323 61.582H58.2453C58.9444 61.582 59.5018 61.4061 59.918 61.0545C60.3396 60.7031 60.5502 60.2258 60.5502 59.6233C60.5502 58.9535 60.3561 58.468 59.9679 58.1668C59.5795 57.8598 58.9887 57.7064 58.1954 57.7064H55.8323V61.582Z" fill="white"/>
<path opacity="0.3" d="M69.8664 67.2572H75.608V68.5713H68.2606V56.3838H69.8664V67.2572Z" fill="white"/>
<path opacity="0.3" d="M89.6089 62.8711C89.6089 64.0652 89.4092 65.1087 89.0097 66.0017C88.6104 66.889 88.0445 67.567 87.3124 68.0357C86.5801 68.5044 85.7258 68.7389 84.7494 68.7389C83.7952 68.7389 82.9493 68.5044 82.2116 68.0357C81.4737 67.5614 80.8995 66.889 80.489 66.0183C80.0841 65.1423 79.876 64.1295 79.865 62.9799V62.101C79.865 60.9291 80.0674 59.894 80.4725 58.9956C80.8774 58.0971 81.4488 57.4107 82.1865 56.9364C82.9299 56.4564 83.7787 56.2166 84.7328 56.2166C85.7035 56.2166 86.5578 56.4536 87.2957 56.928C88.039 57.3967 88.6104 58.0803 89.0097 58.9788C89.4092 59.8716 89.6089 60.9123 89.6089 62.101V62.8711ZM88.0196 62.0842C88.0196 60.6389 87.7311 59.5313 87.1543 58.7611C86.5772 57.9855 85.7701 57.5976 84.7328 57.5976C83.7231 57.5976 82.9271 57.9855 82.3447 58.7611C81.7678 59.5313 81.4709 60.6027 81.4544 61.9754V62.8711C81.4544 64.2718 81.7457 65.3739 82.328 66.1774C82.9161 66.9754 83.7231 67.3745 84.7494 67.3745C85.7812 67.3745 86.5801 66.9977 87.1459 66.2444C87.7117 65.4855 88.0029 64.4 88.0196 62.9883V62.0842Z" fill="white"/>
<path opacity="0.3" d="M104.359 66.9727C103.948 67.5641 103.374 68.0078 102.636 68.3036C101.904 68.5937 101.05 68.7389 100.073 68.7389C99.086 68.7389 98.2095 68.5073 97.444 68.0441C96.6784 67.5752 96.0848 66.9113 95.6632 66.0519C95.2472 65.1926 95.0337 64.1964 95.0226 63.0636V62.0006C95.0226 60.1646 95.4469 58.7417 96.2956 57.7316C97.1499 56.7216 98.3482 56.2166 99.8903 56.2166C101.155 56.2166 102.173 56.543 102.944 57.1959C103.715 57.8432 104.187 58.764 104.359 59.9582H102.761C102.462 58.3454 101.507 57.5391 99.8987 57.5391C98.828 57.5391 98.0154 57.9185 97.4606 58.6774C96.9115 59.4308 96.634 60.5246 96.6284 61.9587V62.9547C96.6284 64.322 96.9391 65.4101 97.5604 66.2192C98.1818 67.0229 99.0222 67.4247 100.082 67.4247C100.681 67.4247 101.205 67.3577 101.654 67.2238C102.104 67.0898 102.475 66.8638 102.769 66.5458V63.8086H99.9653V62.5028H104.359V66.9727Z" fill="white"/>
<path opacity="0.3" d="M288 61.7144H117.586V65.1429H288V61.7144Z" fill="white"/>
</g>
<defs>
<linearGradient id="paint0_linear" x1="1.86862" y1="29.5047" x2="37.7432" y2="29.5047" gradientUnits="userSpaceOnUse">
<stop stop-color="#5961F9"/>
<stop offset="1" stop-color="#5951F9"/>
</linearGradient>
<linearGradient id="paint1_linear" x1="0" y1="29.605" x2="39.6116" y2="29.605" gradientUnits="userSpaceOnUse">
<stop stop-color="#5961F9"/>
<stop offset="1" stop-color="#5951F9"/>
</linearGradient>
<linearGradient id="paint2_linear" x1="5.34398" y1="32.2105" x2="41.2188" y2="32.2105" gradientUnits="userSpaceOnUse">
<stop stop-color="#5961F9"/>
<stop offset="1" stop-color="#5951F9"/>
</linearGradient>
<linearGradient id="paint3_linear" x1="3.47515" y1="32.11" x2="43.0867" y2="32.11" gradientUnits="userSpaceOnUse">
<stop stop-color="#5961F9"/>
<stop offset="1" stop-color="#5951F9"/>
</linearGradient>
</defs>
</svg>
